<svg xmlns="http://www.w3.org/2000/svg" width="609.8" height="620.1" viewBox="0 0 161.3 164.1"><path d="M-181.5 349.4v-34.7h97.3V384h-97.3z" style="fill:#fefefe;stroke-width:.303083" transform="translate(218.3 -268)"/><path d="m-144 431-.5-1-.8-2.3-.8-2.2-1-2.7-1.1-2.6-1-.2-1-.2-2.1-.6-2.2-.5-4.3 4.6-4.4 4.5-3.8-1.5-3.9-1.5-1.6-.7-1.7-.7v-12.8l-1.4-.9-1.3-.8-1.4-1-1.4-1-4.6 2-4.5 2.2-.8.4-.7.4h-.7l-3.9-4-3.9-4v-1l.7-1.7.6-1.6 1.6-3.9 1.5-3.8-1.7-2.8-1.8-2.8-6.2-.1-6.1-.1-1.7-4.4-1.7-4.4-.4-1-.3-1.1 4.2-4.2 4.2-4.2-.1-.8-.1-.8-.5-2.6-.5-2.6-1.4-.8-1.5-.7-4-1.7-4-1.6-.2-.7v-6l.1-5.3.7-.4.8-.4 4.5-1.8 4.5-1.8.3-.3.3-.2.1-1.4.2-1.4.5-1.7.6-1.7-4.3-4.2-4.2-4.2v-.7l1.4-3.8 1.5-3.8.6-1.2.5-1.2 3.6-.2 3.6-.2h5l.4-.4.3-.5.4-.8.4-.8 1-1.3 1-1.3-1.4-3.5-1.3-3.4-.9-2.1-.8-2.1-.2-.4-.1-.3 4-4.1 4.1-4h.7l.5.2.4.2 1 .4 1.1.5 1.9.8 1.8 1 2 .8 2 .9.6-.4.5-.4 1.5-1 1.4-.9.7-.4.7-.5v-12.3l.4-.3.3-.2 3-1.2 2.8-1.1 1.1-.5 1.2-.5 1.2-.3 1.2-.4 4.3 4.5 4.3 4.4 1.5-.4 1.6-.4 1.5-.3 1.5-.3.7-1.5.7-1.6 1.2-3.1 1.2-3.1.3-.8.3-.8.2-.3.3-.4h5.5v5.2l.2-2.5.2-2.5 2.8-.1h2.8l.5 1.2.6 1.2 1.9 4.5 1.8 4.5h.1l.1.2 2.4.5 2.3.5.7.1.7.2 4.4-4.5 4.5-4.5 1.3.6 1.4.5.8.3.8.4 3.2 1.2 3.3 1.3v12.2l.2.4.3.5 1.3.8 1.2.7 1.1.7 1.1.8h.5l5.3-2.4 5.2-2.4h.6l4 4.1 4.2 4.1-.5 1.1-.4 1.2-1.8 4.2-1.7 4.2-.2.7v.6l1.5 2.5 1.6 2.4h1.3l1.2.1 5 .2 5 .1.8 1.9.7 1.8 1.2 3.2 1.2 3.1v.6l-4.1 4.2-4.2 4.1.6 2.4.6 2.4v1.6l1 .5 1 .5 4.3 1.8 4.4 1.8.3.2.3.3v11.2l-.2.3-.1.2-5.2 2.2-5.2 2.3-.3.2-.3.3v1.9l-.6 2.3-.5 2.4.1.2 4.2 4.2 4.2 4.2-.5 1.4-.6 1.4-1.5 4-1.5 4h-6.2l-6.1.1-1.8 2.6-1.7 2.7v.8l.7 1.6.7 1.7 1.4 3.4 1.4 3.5.2.5.1.6-4 4.2-4.2 4.2-2.1-1-2.2-1-3.3-1.6-3.3-1.6h-.4l-.4.4-.3.3-2.1 1.5-2.1 1.4-.2.3-.2.2v12.6l-.5.2-.5.1-5 2-5 2-.8-.9-.8-.9-3.5-3.6-3.6-3.7-2.2.6-2.2.5h-1.2l-.3.2-.3.2-1.8 4.4-1.8 4.3-.6 1.5-.5 1.4-5.9.1h-5.9zm25.6-53.4 2.2-.4 2-.7 1.8-.7 1.7-1 1.8-.9 2-2 2-2 1-2.2 1.1-2.3.5-2.2.4-2.2-.1-2.2-.2-2.1-.4-1.4-.4-1.4-.7-1.5-.7-1.4-1.3-1.5-1.3-1.4-1.7-1.2-1.6-1.2-2.3-1-2.2-1-3.8-1.3-3.8-1.2-3.7-1.2-3.7-1.2-1.1-.7-1-.7-.7-1-.5-1.1V333l.5-1 .6-1 1.6-.9 1.6-.8h2.8l2.8-.1 1.8.4 1.7.4 2.1.8 2.1.8 2.3 1.5 2.3 1.4h.2l3.4-4.7 3.3-4.7v-1l-1.8-1.3-1.8-1.3-3-1.4-2.8-1.4-2.4-.7-2.4-.7-1.9-.2-1.8-.3h-6.6l-2.3.4-2.2.4-1.3.4-1.4.4-2.2 1.2-2.3 1.1-1.5 1.4-1.5 1.4-1.1 1.5-1 1.6-.7 1.5-.7 1.4-.4 1.9-.3 1.8v4.1l.5 2 .5 2.1.9 1.7.8 1.6 1.9 1.8 1.9 1.9 2.6 1.4 2.6 1.3 3.5 1 3.4 1.1 3.3 1 3.3 1 2 .8 1.8.8 1 1 .9 1 .2 1 .1 1-.2 1-.3 1-.6.6-.6.8-1 .4-.9.5-1.4.4-1.5.3-2.8-.2-2.8-.1-2.3-.7-2.3-.7-2.2-1-2.2-1.1-1.5-1.1-1.6-1-.8-.7-.7-.7v.1l-.2.1-3.4 4.8-3.5 4.8-.3.6-.3.6.5.4.5.3 2 1.5 2.2 1.4 1.9 1 1.8.8 2.7 1 2.6.9 2.1.4 2.1.4 1.9.3 1.8.2h3.5l3.4-.2zm-39.4-29.4v-29l-.1-.7-.2-.6h-14.2v59.3h14.5z" style="fill:#30a3e5" transform="translate(218.3 -268)"/><path d="M-136.9 427h-3.6l-.7-2-.8-1.9-1.3-3.3-1.3-3.3-.4-.3-.3-.3-1.6-.1-1.6-.2-3.9-.8-3.9-.9-4 4-3.9 4.1-2.3-.8-2.3-1-.3-.2-.3-.2v-7.2l-.3-2.3-.1-2.2-3.9-2.6-3.8-2.6-1-.7-1-.7-4.4 2-4.4 2.1-.5.4-.5.3-2-2.2-2.2-2.1.4-.7.4-.7 1.7-4.5 1.7-4.6-2-3-1.8-3-.9-1.4-.8-1.5-.5-.4-.5-.5-5.4-.1-5.5-.2-1-2.5-1-2.6 3.8-3.7 3.8-3.8v-1.2l-.8-4-.8-4-.2-1.4-.2-1.5-.3-.3-.2-.4-1.4-.6-1.3-.6-3.3-1.4-3.4-1.4v-.2l-.2-.2V349l.2-2.6 4-1.7 4-1.7.9-.5.9-.6 1-5 1-5 .2-.9.1-.8-3.7-3.8-3.7-3.9.9-2.3.9-2.4 4.7-.1 4.7-.2 1-.2 1-.2.9-1.6 1-1.6 1.5-2.3 1.6-2.2.4-.8.4-.7-1-2.6-.9-2.5-1-2.8-1-2.8 1.9-2 2-1.9 4.6 2.1 4.6 2.1.5.2.6.2 1.8-1.4 1.8-1.4 2.6-1.7 2.7-1.7.2-.3.2-.3.2-4.4.3-4.3V280l.2-.2.2-.1 2.2-.9 2-.8h.6l3.3 3.4 3.4 3.4.6.6.7.6 1.8-.6 1.8-.5 3.7-.7 3.7-.6h.2l.5-1.2.5-1 .8-2 .8-1.8.8-2.3 1-2.3h2.7v-2.5l.2-2.4h2.7l2.8-.2.6 1.3.6 1.3 1.8 4.4 1.9 4.5.1.1.1.1 2.4.5 2.3.5.7.2.6.1 4.5-4.4 4.5-4.5 1.3.5 1.4.5.8.4.8.3 3.2 1.3 3.2 1.2v5.2l.1 5.2v1.8l.2.5.3.5 1.2.7 1.3.7 1 .8 1.2.7h.5l5.2-2.4 5.3-2.4h.5l4.1 4.1 4.1 4.1-.4 1.2-.5 1-1.7 4.3-1.8 4.2v.7l-.2.7 1.6 2.4 1.6 2.5h2.5l5 .2 5 .2.7 1.8.8 1.9 1.2 3.1 1.2 3.1v.6l-4.2 4.2-4.1 4.2.6 2.4.5 2.3v1.6l1 .5 1 .5 4.4 1.8 4.4 1.8.3.3.3.2v11.2l-.2.3-.2.3-5.1 2.2-5.2 2.2-.3.2-.4.3v1.9l-.5 2.3-.6 2.4h.1l.1.2 4.2 4.2 4.2 4.2-.5 1.4-.6 1.5-1.5 4-1.6 3.9h-6.1l-6.2.1-1.7 2.7-1.7 2.6v.8l.7 1.7.7 1.6 1.4 3.5 1.4 3.4.1.6.2.5-4 4.2-4.2 4.2-2.2-1-2.2-1-3.2-1.6-3.3-1.5h-.4l-.4.3-.3.3-2.2 1.5-2 1.4-.3.3-.2.3v12.5l-.4.2-.5.2-5 2-5 2-.8-1-.8-.9-3.5-3.6-3.6-3.7-2.2.6-2.2.5h-1.2l-.4.2-.3.2-1.7 4.4-1.8 4.4-.6 1.4-.6 1.5h-5.1V427zm-2.3-20v-1.6l-2.8-.2-2.7-.2-2.5-.4-2.5-.4-3.3-1-3.3-1-2-.9-2.1-.8-2.1-1-2-1-2.8-2-2.8-1.8-2.1-1.7-2.1-1.7-2.3-2.3-2.3-2.4-1.5-1.8-1.5-1.9-1.7-2.5-1.6-2.5-1.2-2.3-1.2-2.2-.6-1.3-.5-1.4-.7-1.7-.7-1.8-.8-3-.8-3.1-.5-3.5-.5-3.5v-8.9l.4-3 .4-2.9.9-3.4.9-3.5 1.2-3.2 1.2-3.2 1.3-2.2 1.2-2.3 1.7-2.6 1.7-2.7 1.6-1.8 1.5-1.9 3.1-3 3.2-3 2.6-2 2.6-1.8 2.4-1.4 2.4-1.3 3.3-1.4 3.3-1.5 3-.8 2.8-.8 2.8-.5 2.8-.5 2.8-.2 2.8-.2v-2.9h-3l-2.2.3-2.3.3-2.5.5-2.6.5-2.5.7-2.4.7-3 1.2-2.9 1.2-2.5 1.3-2.5 1.4-2.9 2-2.9 2-2.8 2.4-2.8 2.5-1.8 2-1.9 2-1 1.3-.9 1.2-1.3 2-1.3 2-1 1.8-1.2 1.9-1.4 3-1.3 3-1.1 3.5-1.2 3.4-.7 4-.8 4v12.4l.6 3.3.6 3.4.8 2.8.8 2.9.5 1.5.5 1.4 1.2 2.9 1.3 2.8 1.8 3 1.8 3 2 2.7 2.1 2.8 2.8 2.8 2.8 2.8 2.5 2 2.5 2 2.5 1.7 2.5 1.6 3.5 1.7 3.4 1.6 3.2 1 3.2 1.2 3.3.6 3.4.7 2.3.3 2.4.2h2zm20.8-29.4 2.2-.4 1.9-.7 1.9-.7 1.7-.9 1.7-1 2-2 2-2 1.1-2.2 1.1-2.2.5-2.3.4-2.2-.2-2.1-.1-2.2-.4-1.4-.4-1.4-.7-1.4-.7-1.5-1.3-1.4-1.4-1.5-1.6-1.2-1.7-1.2-2.2-1-2.2-1-3.8-1.3-3.9-1.2-3.7-1.2-3.7-1.2-1-.7-1-.7-.7-1-.6-1.1v-2.1l.6-1 .6-1.1 1.6-.8 1.6-.8 2.8-.1 2.7-.1 1.8.4 1.8.4 2.1.8 2.1.8 2.3 1.5 2.3 1.4h.2l3.3-4.7 3.4-4.7v-1l-1.8-1.3-1.8-1.3-3-1.4-2.9-1.4-2.3-.7-2.4-.7-1.9-.2-1.8-.3h-6.6l-2.3.4-2.2.4-1.4.4-1.3.5-2.3 1.1-2.2 1.2-1.5 1.3-1.6 1.4-1 1.6-1.1 1.5-.6 1.5-.7 1.5-.4 1.8-.4 1.8v4.1l.6 2.1.5 2 .8 1.7 1 1.6 1.8 1.9 1.8 1.8 2.7 1.4 2.6 1.4 3.4 1 3.5 1 3.3 1 3.3 1 1.9.8 2 .8.8 1 1 1 .1 1 .2 1-.3 1-.3 1-.5.7-.6.7-1 .5-1 .5-1.4.3-1.4.3-2.8-.1-2.8-.2-2.3-.7-2.3-.6-2.2-1.1-2.2-1.1-1.6-1-1.6-1.1-.7-.7-.7-.7-.1.1-.1.1-3.5 4.8-3.4 4.8-.3.6-.3.6.5.4.4.4 2.2 1.4 2 1.4 2 1 1.8.9 2.7.9 2.6 1 2.1.3 2.1.5 1.9.2 1.8.3 3.4-.1 3.5-.2zm-39.4-29.4v-29l-.2-.6-.1-.6h-14.2v59.2h14.5z" style="fill:#f26e1d" transform="translate(218.3 -268)"/><path d="m-132.4 431.8.3-.1.2.1.2.2h-1.1zm-6.6-4.8h-1.5l-.7-2-.7-1.9-1.4-3.3-1.3-3.3-.4-.3-.3-.3-1.6-.1-1.6-.2-3.9-.8-3.9-.9-3.9 4-4 4.1-2.2-.8-2.3-1-.4-.2-.3-.2v-7.3l-.2-2.2-.2-2.2-3.8-2.6-3.9-2.6-1-.7-1-.7-4.4 2-4.4 2.1-.5.4-.5.3-2-2.2-2.1-2.1.3-.7.4-.7 1.7-4.5 1.8-4.6-2-3-2-3-.8-1.4-.8-1.5-.5-.4-.5-.5-5.4-.2-5.5-.1-1-2.5-.9-2.6 3.8-3.7 3.7-3.8v-1.2l-.8-4-.8-4-.2-1.4-.2-1.5-.2-.3-.3-.4-1.4-.6-1.3-.6-3.3-1.4-3.3-1.4-.2-.2v-5.4l4.1-1.7 4-1.7 1-.6.8-.5 1-5 1-5 .2-.9.2-.8-3.8-3.8-3.7-3.9 1-2.3.8-2.4 4.7-.1 4.7-.2 1-.2 1-.2 1-1.6.9-1.6 1.6-2.3 1.6-2.2.4-.8.4-.7-1-2.6-1-2.6-1-2.7-1-2.8 2-2 1.9-1.9 4.6 2.1 4.6 2.1.5.2.6.2 1.8-1.4 1.8-1.4 2.7-1.7 2.6-1.7.2-.3.2-.3.3-4.4.2-4.3V280l.3-.2.2-.1 2-.9 2.2-.8h.6l3.3 3.4 3.3 3.3.7.7.6.6 1.8-.6 1.9-.5 3.6-.7 3.7-.6h.1l.6-1.2.5-1 .8-2 .8-1.8.9-2.3.9-2.3h2.7v-.4l1.5.1 1.5.1 1 2.4.9 2.4 1 2.4 1 2.4.1.5.2.6 1.3.2 1.2.2 2.7.5 2.6.5 1.7.5 1.7.5 1.3-1.1 1.4-1.2 2.6-2.8 2.6-2.8h.8l1.8.7 1.9.6.5.3.4.2.2 5.3.2 5.3.3.6.3.6 2.3 1.6 2.2 1.5.4.2.4.1 1.7 1.3 1.7 1.3h.6l1.9-.8 1.8-.7 2.1-1 2.1-1 .8-.4.8-.4h.5l2 2 1.8 1.9-1 2.6-1 2.7-1 2.4-.9 2.4v.9l2 3 2.2 3.2.7 1.2.7 1.2.4.2.5.2 5.3.2 5.2.2.2.4.2.4.8 2 .8 2.2-3.7 3.7-3.7 3.8.1 1 .1 1 .6 2.8.6 2.8.4 2 .3 1.9.5.4.6.5 3.8 1.6 3.8 1.6.7.3.7.3v5.5l-1.5.8-1.5.7-3 1.3-3 1.2-.5.5-.5.4-.3 1.6-.3 1.6-.8 3.7-.8 3.7v1.3l3.8 3.7 3.7 3.7v.7l-.9 2-.8 2-.2.4-.3.3-5 .1-5.1.2-.5.2-.4.1-2 3.1-1.9 3.1-1.1 1.6-1.1 1.7 1 2.6 1 2.6 1 2.3 1 2.4v.9l-2 2-1.8 1.8-5-2.3-5-2.3-.4.2-.3.2-2.6 1.9-2.5 1.9-1.7 1-1.7 1-.3.7-.3.7-.2 5.4-.2 5.4-2.5 1-2.5 1.1-4-4-4-4h-.8l-.8.2-4 .8-4 .9-.8.2-1 .1-.4.8-.4.8-1.5 4-1.5 4-.1.5-.2.6-1.5.1h-1.5zm7.6-19 1.3-.1 2.2-.4 2.3-.4 2.1-.5 2.1-.6 2.8-1 2.8-.8 2.4-1.2 2.3-1 3.1-2 3.1-1.8 2-1.6 1.9-1.5 2.4-2.2 2.4-2.2 2.2-2.6 2.1-2.5 2-3 2-3 2-4 2.1-4 .9-2.7.8-2.7.5-1.8.5-1.9.3-1.3.3-1.3.3-2.1.4-2.1V344l-.4-2.4-.4-2.3-.6-2.7-.6-2.6-1-3.3-1.1-3.2-1.7-3.4-1.7-3.4-1-1.6-1-1.6-1.1-1.6-1-1.5-2.5-3-2.4-2.8-1.2-1.1-1.1-1-1.7-1.5-1.8-1.5-1-.8-1-.8-1.7-1-1.6-1.2-1-.5-1-.6-3-1.5-2.8-1.4-2.2-.8-2.1-.8-2.4-.7-2.4-.6-2.6-.5-2.7-.5-2.9-.3-2.9-.3h-6.4l-2.2.3-2.2.3-2.6.5-2.6.5-2.4.7-2.5.7-3 1.2-2.8 1.2-2.5 1.3-2.6 1.3-2.9 2-2.9 2-2.8 2.5-2.8 2.5-1.8 2-1.8 2-1 1.3-1 1.1-1.2 2-1.4 2-1 1.9-1.2 1.8-1.3 3-1.4 3.1-1.1 3.4-1.1 3.5-.8 4-.7 4v12.3l.5 3.3.6 3.4.8 2.8.8 2.9.5 1.4.5 1.5 1.3 2.9 1.2 2.8 1.8 3 1.8 3 2 2.7 2.2 2.8 2.7 2.8 2.8 2.8 2.5 2 2.5 2 2.6 1.6 2.5 1.7 3.4 1.7 3.5 1.6 3.1 1 3.2 1.1 3.4.7 3.3.7 2.3.3 2.4.2 4.2-.1 4.2-.1zm-7.8-1.3v-1.3l-2.7-.2-2.8-.2-2.5-.4-2.5-.5-3.3-1-3.3-1-2-.8-2.1-.8-2-1-2.2-1-2.7-2-2.8-1.8-2-1.7-2.2-1.7-2.3-2.3-2.3-2.4-1.5-1.8-1.5-1.9-1.6-2.5-1.7-2.5-1.2-2.3-1.2-2.2-.5-1.3-.6-1.4-.7-1.8-.7-1.8-.8-3-.7-3-.6-3.5-.5-3.5v-8.9l.4-3 .4-2.9 1-3.5.8-3.4 1.2-3.2 1.3-3.2 1.2-2.2 1.2-2.3 1.7-2.6 1.8-2.7 1.5-1.8 1.5-2 3.2-3 3.1-3 2.6-1.8 2.6-1.9 2.4-1.4 2.4-1.3 3.3-1.5 3.3-1.4 3-.8 2.8-.8 2.3-.4 2.2-.5 3.5-.3 3.4-.3 3.6.2 3.6.2 2.6.4 2.5.4 3.1.8 3.1.8 3 1.2 3.1 1.3 2.4 1.3 2.4 1.3 2.4 1.6 2.4 1.6 2.2 1.9 2.3 1.9 2.2 2.4 2.3 2.4 1.7 2.2 1.7 2.3 1.6 2.7 1.7 2.8 1.2 2.7 1.2 2.8 1 2.8.9 2.8.6 2.7.6 2.8.3 2.5.3 2.5v5.6l-.2 5.6-.3 2-.4 2-.7 2.9-.8 3-1 2.6-1 2.5-1.4 3.1-1.6 3-1 1.8-1 1.7-1.7 2.2-1.7 2.3-2 2.2-2 2.2-2.4 2-2.4 2-1.4 1.1-1.5 1-1.7 1.1-1.7 1.1-1.6.9-1.6.8-2.7 1.2-2.6 1.1-2.2.7-2.2.7-2.3.5-2.4.5-2.6.3-2.6.3-2.8.2-2.7.2-.2 1.2-.2 1.1zm20.8-29 2.2-.5 2-.7 1.8-.7 1.7-1 1.8-.9 2-2 2-2 1-2.2 1.1-2.3.5-2.2.4-2.2-.1-2.2-.2-2-.4-1.5-.4-1.4-.7-1.4-.7-1.5-1.3-1.4-1.3-1.5-1.7-1.2-1.6-1.2-2.3-1-2.2-1-3.8-1.3-3.8-1.2-3.7-1.2-3.7-1.2-1.1-.7-1-.7-.7-1-.5-1.1v-2.1l.5-1 .6-1.1 1.6-.8 1.6-.8 2.8-.1 2.8-.1 1.8.4 1.7.4 2.1.8 2.1.8 2.3 1.5 2.3 1.4h.2l3.4-4.7 3.3-4.7v-1l-1.8-1.3-1.8-1.3-3-1.4-2.8-1.4-2.4-.7-2.4-.7-1.9-.2-1.8-.3h-6.6l-2.3.4-2.2.4-1.3.4-1.4.5-2.2 1.1-2.3 1.2-1.5 1.3-1.5 1.4-1.1 1.5-1 1.6-.7 1.5-.7 1.5-.4 1.8-.3 1.8v4.1l.5 2 .5 2.1.9 1.7.8 1.6 1.9 1.9 1.9 1.8 2.6 1.4 2.6 1.3 3.5 1.1 3.4 1 3.3 1 3.3 1 2 .8 1.8.8 1 1 .9 1 .2 1 .1 1-.2 1-.3 1-.6.7-.6.7-1 .5-.9.4-1.4.4-1.5.3-2.8-.1-2.8-.2-2.3-.7-2.3-.6-2.2-1.1-2.2-1.1-1.5-1-1.6-1.1-.8-.7-.7-.7v.1l-.2.1-3.4 4.8-3.5 4.8-.3.6-.3.6.5.4.5.3 2 1.5 2.2 1.4 1.9 1 1.8.9 2.7.9 2.6.9 2.1.4 2.1.4 1.9.3 1.8.3 3.5-.2h3.4zm-39.4-29.5v-29l-.1-.6-.2-.6h-14.2v59.2h14.5zm18.9-56v-.8l.1.4.1.5-.1.3-.1.4zm73.2 94v-.2l.4-.1.4-.2-.1.3-.2.2h-.5z" style="fill:#092846" transform="translate(218.3 -268)"/></svg>