<svg xmlns="http://www.w3.org/2000/svg" width="953.5" height="953.5" viewBox="0 0 252.3 252.3">
  <path d="M-298.4 618v-77.1h153.5V695h-153.5z" style="fill:#fefefe;stroke-width:.567707" transform="translate(353.4 -488.7)"/>
  <path d="m-346.6 740.7-1-.2-1.1-.6-1.2-.5-1.2-1.3-1.3-1.3-.5-1.3-.5-1.3V495l.7-1.3.6-1.3 1-1.1 1-1.1 1.7-.8 1.6-.7h239.2l1.6.8 1.6.8 1 1.2 1 1 .6 1.3.6 1.2v119.4l.1 119.4-.5 1.5-.6 1.6-1.6 1.6-1.7 1.6-1.6.4-1.6.5h-118.5l-118.5-.1zm136.9-98.2 2.4-.3 2.6-.9 2.7-.8 1.6-1 1.5-.8 2.2-2.1 2.1-2.1 1-2 1-2 .4-2 .4-2-.1-2.9-.1-2.9-.8-1.9-.7-1.8-.7-1-.8-1.1-1.5-1.5-1.6-1.5-1.9-1-1.8-1.2-2.3-1-2.3-.8-3.1-1-3.1-1-3.3-1-3.3-1-1.3-.9-1.3-.8-.6-1-.5-1V598l.5-1 .5-1.1 1.1-.7 1.2-.8 1.7-.3 1.8-.3 2.3.1 2.3.2 2.5.8 2.4.8 1.8 1 1.7.9 1.3.8 1.3 1 3.5-5 3.5-4.9-.1-.2-.1-.2-2.6-1.7-2.6-1.7-1.3-.7-1.3-.6-2-.7-1.8-.7-2.6-.5-2.6-.5-2.5-.2-2.5-.2-2.8.3-2.7.3-2.3.7-2.3.7-2 1-2.2 1.2-1.5 1.4-1.5 1.4-1.2 1.8-1.2 1.7-.8 2-.7 2v3.2l-.2 3.2.5 1.7.4 1.7.8 1.7.8 1.6 2 2 2 2.1 2.8 1.4 2.6 1.3 4.2 1.2 4.2 1.3 3.4 1 3.3 1.1 1.4.8 1.4.9.6.9.6.9v2.8l-.6 1-.6 1-1.4.7-1.3.8-2.3.3-2.2.3-2.9-.5-2.8-.5-2.3-.8-2.2-.9-1-.6-1.1-.6-1-.5-.9-.6-1.5-1.1-1.6-1.2-.3.5-.4.5-3.4 4.7-3.4 4.8 1.5 1.1 1.4 1.2 1.5.9 1.5.8 2 1 2 1 2 .6 1.9.6 1.9.5 1.8.4 1.7.2 1.7.2h6.1zm-38-30V583h-14v1.3l-.2 1.3v56l.1.2.1.2h14z" style="fill:#b0c6d3" transform="translate(353.4 -488.7)"/>
  <path d="m-233.6 695.8-.5-1-.9-2.2-.8-2.3-1-2.6-1-2.7-1-.2-1-.2-2.2-.5-2.1-.5-4.4 4.5-4.4 4.6-3.8-1.6-3.8-1.5-1.7-.7-1.6-.6v-12.8l-1.4-1-1.4-.8-1.4-1-1.3-1-4.6 2-4.6 2.2-.8.4-.7.4h-.7l-3.9-4-3.8-4v-1l.6-1.7.7-1.6 1.5-3.9 1.6-3.8-1.8-2.8-1.7-2.7-6.2-.2-6.2-.1-1.7-4.4-1.7-4.3-.3-1.1-.4-1.1 4.2-4.2 4.3-4.2-.2-.8v-.8l-.6-2.6-.4-2.6-1.5-.7-1.5-.8-4-1.6-4-1.7-.1-.7-.2-.7.1-5.3.1-5.3.8-.4.7-.3 4.5-1.9 4.5-1.8.3-.2.3-.3.2-1.4.2-1.4.5-1.7.5-1.7-4.2-4.2-4.3-4.2v-.7l1.5-3.8 1.4-3.8.6-1.2.5-1.2 3.6-.2 3.6-.1h5l.4-.5.4-.5.4-.8.3-.7 1-1.4 1-1.3-1.3-3.4-1.4-3.5-.8-2-.9-2.2-.1-.3-.2-.4 4-4 4.1-4.2h.7l.5.3.5.2 1 .5 1 .4 2 .9 1.8.8 2 .9 2 .9.5-.4.6-.4 1.4-1 1.4-.9.7-.4.8-.5v-12.3l.3-.3.3-.2 3-1.2 2.9-1 1-.6 1.2-.5 1.2-.3 1.2-.3 4.3 4.4 4.3 4.4 1.6-.3 1.6-.4 1.4-.3 1.5-.3.7-1.6.8-1.6 1.2-3.1 1.2-3.1.3-.8.3-.8.2-.3.2-.3h5.5v2.5l.1 2.6.2-2.5.1-2.5h2.8l2.8-.2.6 1.3.6 1.3 1.8 4.4 1.9 4.5v.1l.2.1 2.3.5 2.4.5.6.2.7.1 4.4-4.5 4.5-4.4 1.4.5 1.3.5.8.4.8.3 3.3 1.3 3.2 1.2v5.2l.1 5.2v1.8l.2.5.2.5 1.3.7 1.2.7 1.1.8 1.2.7h.5l5.2-2.4 5.2-2.4h.6l4 4.1 4.2 4.1-.5 1.2-.4 1-1.7 4.3-1.8 4.2-.1.7-.1.7 1.6 2.4 1.6 2.5h2.5l5 .2 5 .2.7 1.8.7 1.9 1.2 3.1 1.2 3.1v.6l-4.1 4.2-4.1 4.2.5 2.4.6 2.3v1.6l1 .5 1 .5 4.4 1.8 4.3 1.8.4.3.3.2v11.2l-.2.3-.2.3-5.2 2.2-5.1 2.2-.4.2-.3.3v1.8l-.6 2.4-.5 2.4.2.2 4.2 4.2 4.2 4.2-.6 1.4-.5 1.5-1.6 4-1.5 3.9h-6.2l-6.1.1-1.7 2.7-1.7 2.6v.8l.7 1.7.6 1.6 1.4 3.5 1.4 3.4.2.6.2.5-4.1 4.2-4.1 4.2-2.2-1-2.2-1-3.3-1.6-3.3-1.5h-.4l-.3.3-.4.3-2 1.5-2.2 1.4-.2.3-.2.3v12.5l-.5.2-.4.2-5 2-5 2-.8-1-.8-.9-3.6-3.6-3.5-3.7-2.2.6-2.2.5h-1.3l-.3.2-.3.2-1.8 4.4-1.7 4.4-.6 1.4-.6 1.5H-233zm25.6-53.4 2.2-.4 1.9-.7 1.9-.7 1.7-.9 1.7-1 2-2 2-2 1.1-2.2 1-2.2.5-2.3.5-2.2-.2-2.1-.2-2.2-.3-1.4-.4-1.4-.7-1.4-.7-1.5-1.4-1.4-1.3-1.5-1.7-1.2-1.6-1.2-2.2-1-2.2-1-3.9-1.3-3.8-1.2-3.7-1.2-3.7-1.2-1-.7-1.1-.7-.6-1-.6-1.1V598l.6-1 .6-1.1 1.6-.8 1.5-.8 2.8-.1 2.8-.1 1.8.4 1.8.4 2 .8 2.2.8 2.3 1.5 2.3 1.4h.1l3.4-4.7 3.4-4.7v-1l-1.8-1.3-1.9-1.3-2.9-1.4-3-1.4-2.3-.7-2.4-.7-1.8-.2-1.9-.3h-6.6l-2.2.4-2.3.4-1.3.4-1.3.5-2.3 1.1-2.3 1.2-1.5 1.3-1.5 1.4-1 1.6-1.1 1.5-.7 1.5-.6 1.5-.4 1.8-.4 1.8v4.1l.5 2.1.5 2 .9 1.7.9 1.6 1.8 1.9 1.9 1.8 2.6 1.4 2.7 1.3 3.4 1.1 3.4 1 3.3 1 3.3 1 2 .8 1.9.8.9 1 1 1 .1 1 .2 1-.3 1-.3 1-.6.7-.5.7-1 .5-1 .4-1.4.4-1.4.3-2.8-.1-2.8-.2-2.3-.7-2.4-.6-2.1-1.1-2.2-1.1-1.6-1-1.6-1.1-.7-.7-.7-.7-.2.1v.1l-3.5 4.8-3.4 4.8-.3.6-.4.6.5.4.5.4 2.1 1.4 2.1 1.4 2 1 1.8.9 2.6.9 2.6.9 2.2.4 2 .5 2 .2 1.8.3 3.4-.2h3.4zm-39.4-29.4v-29l-.2-.6-.1-.6H-262V642h14.5z" style="fill:#30a3e5" transform="translate(353.4 -488.7)"/>
  <path d="m-226.6 691.9-2.2-.1h-1.4l-.7-2-.7-1.8-1.4-3.3-1.3-3.4-.4-.2-.3-.3-1.6-.2-1.6-.2-3.9-.8-3.9-.9-3.9 4-4 4.2-2.2-1-2.3-.8-.4-.2-.3-.3v-7.2l-.2-2.3-.2-2.2-3.8-2.6-3.9-2.6-1-.7-1-.7-4.4 2.1-4.4 2-.5.4-.5.3-2-2.1-2.1-2.2.3-.7.4-.6 1.7-4.6 1.8-4.5-2-3-2-3-.7-1.5-.9-1.5-.5-.4-.5-.5-5.4-.1-5.5-.2-1-2.5-.9-2.5 3.8-3.8 3.7-3.7v-1.3l-.8-4-.8-4-.2-1.4-.2-1.4-.2-.4-.3-.3-1.4-.6-1.3-.7-3.3-1.4-3.3-1.4-.2-.2v-5.4l4.1-1.7 4-1.6 1-.6.8-.6 1-5 1-5 .2-.8.2-.9-3.8-3.8-3.7-3.8 1-2.4.8-2.3 4.7-.2 4.8-.2 1-.2.9-.1 1-1.7.9-1.6 1.6-2.3 1.6-2.2.4-.7.4-.8-1-2.5-1-2.6-1-2.8-1-2.7 2-2 1.9-2 4.6 2.1 4.6 2.2.5.1.6.2 1.8-1.4 1.8-1.4 2.7-1.6 2.6-1.7.2-.4.2-.3.3-4.3.2-4.4V546l.1-1.2.2-.1.2-.2 2-.8 2.2-.9h.6l3.3 3.4 3.3 3.4.7.6.6.6 1.9-.5 1.8-.6 3.7-.6 3.6-.7h.2l.5-1.1.5-1.2.8-1.8.8-1.9.9-2.3.9-2.3h2.7l.1-2.4v-2.5h2.9l2.8-.1.6 1.2.5 1.3 1.9 4.5 1.8 4.4.1.1.1.2 2.4.4 2.3.5.7.2.7.2 4.4-4.5 4.5-4.5 1.3.5 1.4.6.8.3.8.4 3.2 1.2 3.3 1.2v12.2l.2.5.3.5 1.3.7 1.2.7 1.1.8 1.1.7h.5l5.3-2.4 5.2-2.3h.6l4 4 4.2 4.2-.5 1-.4 1.2-1.8 4.2-1.7 4.2-.1.7-.2.7 1.6 2.4 1.6 2.5h2.5l5 .2 5 .2.8 1.8.7 1.9 1.2 3.1 1.2 3.2v.5l-4.1 4.2-4.2 4.2.6 2.4.6 2.4v1.6l1 .4 1 .5 4.3 1.8 4.4 1.8.3.3.4.3v11.1l-.2.3-.2.3-5.2 2.2-5.2 2.2-.3.3-.3.2v1.9l-.6 2.3-.5 2.4v.1l.2.1 4.2 4.2 4.2 4.3-.6 1.4-.6 1.4-1.5 4-1.5 4H-167l-1.7 2.7-1.8 2.6v.8l.7 1.7.7 1.6 1.4 3.5 1.4 3.4.2.6.2.5-4.1 4.2-4.1 4.2-2.2-1-2.2-1-3.3-1.6-3.3-1.5h-.4l-.4.3-.3.4-2.1 1.4-2.1 1.5-.2.2-.2.3v12.6l-.5.1-.5.2-5 2-5 2-.8-1-.7-.8-3.6-3.7-3.6-3.6-2.2.5-2.2.6h-1.2l-.3.2-.3.2-1.8 4.3-1.8 4.4-.5 1.4-.6 1.5h-5.2v-4.8zm-2.2-20.1v-1.6l-2.8-.2-2.8-.1-2.5-.5-2.5-.4-3.3-1-3.3-1-2-.8-2.1-.9-2-1-2.2-1-2.7-1.9-2.8-1.8-2-1.8-2.2-1.7-2.3-2.3-2.3-2.4-1.5-1.8-1.4-1.9-1.7-2.5-1.7-2.5-1.2-2.2-1.2-2.3-.5-1.3-.6-1.3-.7-1.8-.7-1.8-.7-3-.8-3-.6-3.6-.5-3.5v-8.8l.4-3 .4-3 1-3.4.8-3.5 1.2-3.2 1.3-3.1 1.2-2.3 1.2-2.2 1.7-2.7 1.8-2.6 1.5-1.9 1.5-1.9 3.2-3 3.1-3 2.6-1.9 2.7-1.9 2.3-1.3 2.4-1.4 3.3-1.4 3.3-1.4 3-.8 2.9-.9 2.7-.5 2.8-.5 2.8-.2 2.8-.2v-2.8h-3l-2.2.2-2.2.3-2.6.5-2.6.5-2.4.7-2.5.8-3 1.1-2.8 1.2-2.5 1.3-2.5 1.4-3 2-2.9 2-2.8 2.4-2.8 2.5-1.8 2-1.8 2.1-1 1.2-1 1.2-1.2 2-1.3 2-1.2 1.8-1 1.9-1.4 3-1.4 3-1.1 3.5-1.1 3.4-.8 4-.7 4v12.4l.6 3.3.5 3.4.8 2.9.8 2.8.5 1.5.5 1.4 1.3 2.9 1.2 2.8 1.8 3 1.8 3 2.1 2.8 2 2.7 2.8 2.8 2.8 2.8 2.5 2 2.6 2 2.5 1.7 2.5 1.6 3.4 1.7 3.5 1.7 3.1 1 3.2 1 3.4.8 3.3.7 2.4.2 2.3.2h2.1zm20.7-29.4 2.2-.4 2-.7 1.8-.6 1.7-1 1.8-1 2-2 2-2 1-2.2 1.2-2.2.4-2.3.4-2.2-.1-2.1-.2-2.1-.4-1.5-.4-1.4-.6-1.4-.7-1.4-1.4-1.5-1.3-1.5-1.7-1.2-1.6-1.1-2.2-1-2.3-1.1-3.8-1.2-3.8-1.3-3.7-1.1-3.7-1.2-1-.8-1.2-.7-.5-1-.6-1V598l.6-1 .5-1.1 1.6-.8 1.6-.8h2.8l2.8-.2 1.8.4 1.7.5 2.1.8 2.1.8 2.3 1.4 2.3 1.5h.2l3.4-4.7 3.3-4.7v-1l-1.8-1.3-1.8-1.3-3-1.5-2.8-1.4-2.4-.7-2.4-.6-1.8-.3-1.9-.3h-6.6l-2.3.4-2.2.4-1.3.5-1.4.4-2.2 1.1-2.3 1.2-1.5 1.4-1.5 1.3-1 1.6-1.2 1.6-.6 1.4-.7 1.5-.3 1.8-.4 1.9v4l.5 2.1.5 2 .9 1.7.8 1.6 2 1.9 1.8 1.8 2.6 1.4 2.6 1.4 3.5 1 3.4 1.1 3.3 1 3.3 1 2 .7 1.8.8 1 1 .9 1 .2 1 .2 1-.3 1-.3 1-.6.7-.5.7-1 .5-1 .5-1.4.3-1.5.4-2.8-.2-2.8-.2-2.3-.6-2.3-.7-2.2-1.1-2.1-1-1.6-1.1-1.6-1.1-.7-.7-.8-.7v.2h-.2l-3.4 4.8-3.4 4.8-.4.6-.3.6.5.4.5.4 2 1.4 2.2 1.4 1.9 1 1.9.9 2.6 1 2.6.8 2.1.5 2.1.4 1.9.2 1.8.3 3.5-.1 3.4-.1zm-39.4-29.4v-29l-.1-.6-.2-.6H-262V642h14.5z" style="fill:#f26e1d" transform="translate(353.4 -488.7)"/>
  <path d="m-222 696.6.3-.1.1.2.2.1h-1zm-6.7-4.8h-1.5l-.7-2-.7-1.8-1.3-3.4-1.4-3.3-.3-.3-.4-.2-1.6-.2-1.5-.2-4-.8-3.8-.9-4 4-3.9 4.1-2.3-.8-2.3-.9-.3-.3-.4-.2v-7.2l-.2-2.3-.2-2.2-3.8-2.6-3.8-2.6-1-.7-1-.7-4.4 2-4.5 2.2-.5.3-.5.3-2-2.2-2.1-2.1.4-.7.3-.6 1.8-4.6 1.7-4.5-2-3-1.9-3-.8-1.5-.8-1.5-.5-.4-.5-.5-5.5-.1-5.4-.2-1-2.5-1-2.5 3.8-3.8 3.7-3.7v-1.3l-.8-4-.8-4-.2-1.4-.1-1.5-.3-.3-.3-.3-1.3-.7-1.4-.6-3.3-1.4-3.3-1.4-.1-.2-.2-.2.1-2.6.1-2.6 4-1.7 4-1.7 1-.5.9-.6 1-5 1-5 .1-.9.2-.8-3.7-3.8-3.8-3.9 1-2.3.8-2.4 4.8-.1 4.7-.2 1-.2.9-.2 1-1.6 1-1.6 1.5-2.3 1.6-2.2.4-.7.4-.8-1-2.6-.9-2.5-1-2.8-1.1-2.7 2-2 2-2 4.5 2.1 4.6 2.1.6.2.5.2 1.8-1.4 1.8-1.4 2.7-1.7 2.7-1.6.2-.4.1-.3.3-4.4.2-4.3V546l.1-1.2.2-.1.2-.2 2.1-.8 2.1-.9h.6l3.3 3.4 3.3 3.4.7.6.7.6 1.8-.5 1.8-.6 3.7-.6 3.7-.7h.1l.5-1.1.5-1.2.8-1.8.8-1.9.9-2.3.9-2.3h2.8v-.4l1.5.1 1.5.2.9 2.3.9 2.4 1 2.4 1 2.4.2.6.2.6 1.2.1 1.2.2 2.7.5 2.6.5 1.7.5 1.7.5 1.4-1.1 1.3-1.2 2.6-2.8 2.7-2.8h.7l1.9.7 1.8.7.5.2.5.3.2 5.2.2 5.3.3.6.3.7 2.2 1.5 2.3 1.5.4.2.4.2 1.6 1.2 1.7 1.3h.7l1.8-.8 1.8-.7 2.1-1 2.2-1 .7-.3.8-.4h.6l1.9 1.9 1.9 2-1 2.6-1.1 2.6-1 2.4-.9 2.4v.9l2.1 3.1 2 3.1.8 1.2.7 1.3.5.2.4.2 5.3.1 5.3.2.2.4.2.4.8 2 .8 2.2-3.8 3.7-3.7 3.8.1 1 .2 1 .6 2.8.6 2.8.3 2 .3 2 .6.3.5.5 3.8 1.6 3.8 1.6.7.3.8.3v5.5l-1.6.8-1.5.8-3 1.2-3 1.3-.5.4-.5.4-.3 1.6-.3 1.6-.8 3.7-.7 3.7v1.4l3.7 3.7 3.7 3.6v.7l-.8 2-.9 2.1-.2.3-.2.3-5.1.1-5.1.2-.5.2-.4.2-2 3-1.9 3.1-1 1.7-1.2 1.6 1 2.6 1 2.6 1 2.4 1 2.3v.9l-1.9 2-1.8 1.8-5-2.3-5-2.3-.4.2-.4.3-2.5 1.8-2.6 1.9-1.7 1-1.6 1.1-.4.7-.3.6-.2 5.4-.2 5.5-2.5 1-2.4 1-4-4-4.1-4h-.8l-.8.2-4 .9-3.9.8-.9.2-.9.2-.4.8-.5.8-1.4 4-1.5 3.9-.2.6-.2.5-1.5.1-1.5.1zm7.6-19h1.3l2.3-.5 2.2-.4 2.1-.5 2.2-.5 2.7-1 2.8-1 2.4-1 2.4-1.2 3-1.8 3.2-1.9 1.9-1.5 2-1.6 2.3-2.2 2.4-2.2 2.2-2.6 2.2-2.5 2-3 2-3 2-4 2-4 .9-2.7.8-2.6.5-1.9.5-1.8.3-1.4.3-1.3.3-2.1.4-2.1v-11.7l-.4-2.3-.3-2.4-.6-2.7-.6-2.6-1.1-3.3-1-3.2-1.8-3.4-1.7-3.3-1-1.7-1-1.6-1-1.6-1.1-1.5-2.5-2.9-2.4-3-1.1-1-1.2-1-1.7-1.5-1.7-1.4-1-.9-1.1-.8-1.7-1-1.6-1.1-1-.6-1-.6-2.9-1.4-2.9-1.5-2.1-.8-2.2-.8-2.4-.6-2.4-.7-2.6-.5-2.6-.5-3-.3-2.9-.2h-6.3l-2.3.2-2.2.3-2.6.5-2.6.5-2.4.7-2.5.7-2.9 1.2-2.9 1.2-2.5 1.3-2.5 1.4-3 2-2.8 2-2.9 2.4-2.8 2.5-1.8 2-1.8 2-1 1.3-.9 1.2-1.3 2-1.3 2-1.1 1.8-1.1 1.9-1.4 3-1.4 3-1 3.5-1.2 3.4-.8 4-.7 4v12.4l.6 3.3.6 3.4.7 2.9.8 2.8.5 1.5.5 1.4 1.3 2.9 1.3 2.8 1.8 3 1.8 3 2 2.7 2.1 2.8 2.8 2.8 2.8 2.8 2.5 2 2.5 2 2.5 1.7 2.5 1.6 3.4 1.7 3.5 1.6 3.2 1.1 3.2 1 3.3.8 3.4.6 2.3.3 2.3.2 4.2-.1 4.3-.1zm-7.7-1.3v-1.3l-2.8-.2-2.7-.2-2.5-.4-2.6-.4-3.3-1-3.3-1-2-.8-2-.9-2.2-1-2-1-2.8-1.9-2.7-1.9-2.1-1.7-2.2-1.7-2.3-2.3-2.3-2.4-1.4-1.8-1.5-1.9-1.7-2.5-1.7-2.5-1.2-2.3-1.2-2.2-.5-1.3-.5-1.3-.7-1.8-.7-1.8-.8-3-.8-3-.5-3.6-.5-3.5V610l.4-3 .4-2.9.9-3.4.8-3.5 1.3-3.2 1.2-3.2 1.2-2.2 1.2-2.2 1.8-2.7 1.7-2.6 1.5-2 1.5-1.8 3.2-3 3.1-3 2.7-1.9 2.6-1.9 2.4-1.3 2.4-1.4 3.3-1.4 3.3-1.4 2.9-.9 2.9-.8 2.2-.4 2.3-.5 3.4-.3 3.5-.3 3.5.2 3.6.2 2.6.4 2.6.4 3 .8 3.1.8 3.1 1.3 3 1.2 2.4 1.3 2.4 1.3 2.4 1.6 2.4 1.6 2.2 2 2.3 1.8 2.3 2.4 2.2 2.4 1.7 2.3 1.7 2.2 1.7 2.8 1.6 2.7 1.2 2.8 1.3 2.7.9 2.8 1 2.8.5 2.8.6 2.7.3 2.6.4 2.5-.2 5.5v5.6l-.4 2-.3 2-.8 3-.8 2.9-1 2.6-.9 2.6-1.5 3-1.5 3-1 1.8-1.1 1.7-1.7 2.3-1.7 2.2-2 2.2-2 2.2-2.4 2-2.3 2-1.5 1.1-1.5 1-1.7 1.2-1.7 1-1.6.9-1.6.8-2.6 1.2-2.7 1.1-2.2.7-2.2.7-2.3.5-2.3.5-2.6.3-2.7.3-2.7.2-2.8.2-.2 1.2-.1 1.2zm20.8-29 2.2-.5 1.9-.7 1.9-.6 1.7-1 1.7-1 2-2 2-2 1.1-2.2 1-2.2.5-2.3.5-2.2-.2-2.1-.2-2.2-.3-1.4-.4-1.4-.7-1.4-.7-1.4-1.4-1.5-1.3-1.5-1.7-1.2-1.6-1.1-2.2-1-2.2-1.1-3.9-1.3-3.8-1.2-3.7-1.2-3.7-1.1-1-.8-1.1-.7-.6-1-.6-1V598l.6-1 .6-1.1 1.6-.8 1.5-.8 2.8-.1h2.8l1.8.3 1.8.4 2 .8 2.2.9 2.3 1.4 2.3 1.4h.1l3.4-4.6 3.4-4.7V589l-1.8-1.2-1.9-1.3-2.9-1.5-3-1.4-2.3-.7-2.4-.6-1.8-.3-1.9-.3h-6.6l-2.2.4-2.3.4-1.3.4-1.3.5-2.3 1.1-2.3 1.2-1.5 1.3-1.5 1.4-1 1.6-1.1 1.6-.7 1.4-.6 1.5-.4 1.8-.4 1.9v4l.5 2.1.5 2 .9 1.7.9 1.6 1.8 1.9 1.9 1.8 2.6 1.4 2.7 1.4 3.4 1 3.4 1 3.3 1 3.3 1 2 .8 1.9.8.9 1 1 1 .1 1 .2 1-.3 1-.3 1-.6.7-.5.7-1 .5-1 .5-1.4.3-1.4.3-2.8-.1-2.8-.2-2.3-.6-2.4-.7-2.1-1.1-2.2-1-1.6-1.2-1.6-1-.7-.7-.7-.7-.2.1v.2l-3.5 4.7-3.4 4.8-.3.6-.4.6.5.4.5.4 2.1 1.4 2.1 1.4 2 1 1.8.9 2.6 1 2.6.8 2.2.4 2 .5 2 .2 1.8.3 3.4-.1 3.4-.1zm-39.4-29.5v-29l-.2-.6-.1-.6H-262V642h14.5zm18.8-56v-.8l.1.5.2.4-.2.4-.1.3zm73.3 94v-.2l.4-.1.4-.2-.2.3-.2.2h-.4z" style="fill:#092846" transform="translate(353.4 -488.7)"/>
</svg>
